<svg width="34" height="35" viewBox="0 0 34 35" fill="none" xmlns="http://www.w3.org/2000/svg">
<g clip-path="url(#clip0_87_9994)">
<path fill-rule="evenodd" clip-rule="evenodd" d="M17 7.89941C17.2818 7.89941 17.552 8.01136 17.7513 8.21061C17.9506 8.40987 18.0625 8.68012 18.0625 8.96191V17.4619C18.0625 17.7437 17.9506 18.014 17.7513 18.2132C17.552 18.4125 17.2818 18.5244 17 18.5244H8.5C8.21821 18.5244 7.94796 18.4125 7.7487 18.2132C7.54944 18.014 7.4375 17.7437 7.4375 17.4619C7.4375 17.1801 7.54944 16.9099 7.7487 16.7106C7.94796 16.5114 8.21821 16.3994 8.5 16.3994H15.9375V8.96191C15.9375 8.68012 16.0494 8.40987 16.2487 8.21061C16.448 8.01136 16.7182 7.89941 17 7.89941V7.89941Z" fill="#2196F3"/>
<path fill-rule="evenodd" clip-rule="evenodd" d="M15.9375 17.4619C15.9375 17.1801 16.0494 16.9099 16.2487 16.7106C16.448 16.5114 16.7182 16.3994 17 16.3994H25.5C25.7818 16.3994 26.052 16.5114 26.2513 16.7106C26.4506 16.9099 26.5625 17.1801 26.5625 17.4619C26.5625 17.7437 26.4506 18.014 26.2513 18.2132C26.052 18.4125 25.7818 18.5244 25.5 18.5244H18.0625V25.9619C18.0625 26.2437 17.9506 26.514 17.7513 26.7132C17.552 26.9125 17.2818 27.0244 17 27.0244C16.7182 27.0244 16.448 26.9125 16.2487 26.7132C16.0494 26.514 15.9375 26.2437 15.9375 25.9619V17.4619Z" fill="#2196F3"/>
<path fill-rule="evenodd" clip-rule="evenodd" d="M17 32.3369C20.9451 32.3369 24.7286 30.7697 27.5182 27.9801C30.3078 25.1905 31.875 21.407 31.875 17.4619C31.875 13.5168 30.3078 9.7333 27.5182 6.9437C24.7286 4.1541 20.9451 2.58691 17 2.58691C13.0549 2.58691 9.27139 4.1541 6.48179 6.9437C3.69218 9.7333 2.125 13.5168 2.125 17.4619C2.125 21.407 3.69218 25.1905 6.48179 27.9801C9.27139 30.7697 13.0549 32.3369 17 32.3369V32.3369ZM17 34.4619C21.5087 34.4619 25.8327 32.6708 29.0208 29.4827C32.2089 26.2946 34 21.9706 34 17.4619C34 12.9532 32.2089 8.62922 29.0208 5.4411C25.8327 2.25298 21.5087 0.461914 17 0.461914C12.4913 0.461914 8.1673 2.25298 4.97918 5.4411C1.79107 8.62922 0 12.9532 0 17.4619C0 21.9706 1.79107 26.2946 4.97918 29.4827C8.1673 32.6708 12.4913 34.4619 17 34.4619V34.4619Z" fill="#2196F3"/>
</g>
<defs>
<clipPath id="clip0_87_9994">
<rect width="34" height="34" fill="white" transform="translate(0 0.461914)"/>
</clipPath>
</defs>
</svg>
