<svg width="52" height="53" viewBox="0 0 52 53" fill="none" xmlns="http://www.w3.org/2000/svg">
<circle cx="26.3346" cy="26.5004" r="25.6657" fill="#2196F3"/>
<path d="M23.4642 33.0534C23.4642 32.1144 23.5205 31.263 23.6332 30.4993C23.7584 29.7231 24.0213 28.9718 24.422 28.2457C24.7851 27.5445 25.217 26.9749 25.7178 26.5367C26.2186 26.0859 26.757 25.654 27.3329 25.2408C27.9089 24.8277 28.4785 24.3206 29.0419 23.7196C29.5427 23.1562 29.8745 22.5928 30.0373 22.0294C30.2001 21.4535 30.2814 20.8463 30.2814 20.2077C30.2814 19.6443 30.2126 19.1373 30.0748 18.6865C29.9496 18.2233 29.7368 17.8289 29.4363 17.5034C28.9856 16.94 28.4222 16.5518 27.7461 16.339C27.0825 16.1262 26.3877 16.0197 25.6615 16.0197C24.9729 16.0197 24.3218 16.1136 23.7083 16.3014C23.1074 16.4892 22.6066 16.7835 22.2059 17.1841C21.8053 17.5472 21.5111 17.9917 21.3232 18.5175C21.1354 19.0308 21.0415 19.588 21.0415 20.1889H17.5484C17.6235 19.0997 17.8802 18.0668 18.3184 17.0902C18.7691 16.1011 19.3889 15.2873 20.1777 14.6488C20.9163 14.0228 21.7615 13.5658 22.713 13.2778C23.6645 12.9773 24.6223 12.8271 25.5864 12.8271C26.8634 12.8271 28.0716 13.0211 29.211 13.4093C30.3628 13.7974 31.3206 14.4422 32.0843 15.3436C32.6728 15.9822 33.111 16.7146 33.399 17.5409C33.6869 18.3673 33.8309 19.2374 33.8309 20.1514C33.8309 21.2657 33.6055 22.3049 33.1548 23.2689C32.7166 24.233 32.1219 25.1031 31.3707 25.8794C30.9575 26.3301 30.5068 26.7433 30.0185 27.1189C29.5427 27.4945 29.0858 27.8701 28.6475 28.2457C28.2219 28.6213 27.8838 29.0344 27.6334 29.4852C27.3079 30.0736 27.1201 30.6182 27.07 31.1191C27.0324 31.6073 27.0137 32.2521 27.0137 33.0534H23.4642ZM23.483 40.4153V36.3024H27.0137V40.4153H23.483Z" fill="white"/>
</svg>
