<svg width="38" height="38" viewBox="0 0 38 38" fill="none" xmlns="http://www.w3.org/2000/svg">
<circle r="18.532" transform="matrix(-1 0 0 1 19 18.9378)" fill="white"/>
<rect width="5.84365" height="3.42137" transform="matrix(-1 0 0 1 27.3574 20.2576)" fill="#B6B6B6"/>
<rect width="5.84365" height="7.34227" transform="matrix(-1 0 0 1 27.3574 12.9153)" fill="#B6B6B6"/>
<rect width="5.44779" height="1.36666" transform="matrix(-1 0 0 1 27.188 19.381)" fill="#C4C4C4"/>
<rect width="5.44779" height="1.36666" transform="matrix(-1 0 0 1 27.3291 11.7372)" fill="#D3D3D3"/>
<rect width="5.84365" height="7.34227" transform="matrix(-1 0 0 1 15.9058 12.9153)" fill="#B6B6B6"/>
<rect width="6.34319" height="7.52135" transform="matrix(-1 0 0 1 21.8813 11.7372)" fill="#C4C4C4"/>
<path d="M20.6467 14.8097C20.6467 13.7478 19.7859 12.887 18.724 12.887V12.887C17.6621 12.887 16.8012 13.7478 16.8012 14.8097V17.4394H20.6467V14.8097Z" fill="#9A9A9A"/>
<rect width="5.60802" height="6.40917" transform="matrix(-1 0 0 1 21.5139 20.691)" fill="#B4B4B4"/>
<rect width="5.84365" height="3.42137" transform="matrix(-1 0 0 1 15.9058 20.2576)" fill="#B6B6B6"/>
<rect width="1.40436" height="2.46941" transform="matrix(-1 0 0 1 26.7261 20.9266)" fill="#8F8F8F"/>
<rect width="1.40436" height="2.46941" transform="matrix(-1 0 0 1 26.7261 16.4214)" fill="#8F8F8F"/>
<rect width="1.40436" height="2.46941" transform="matrix(-1 0 0 1 26.7261 13.2357)" fill="#8F8F8F"/>
<rect width="1.40436" height="2.46941" transform="matrix(-1 0 0 1 24.5581 16.4214)" fill="#8F8F8F"/>
<rect width="1.40436" height="2.46941" transform="matrix(-1 0 0 1 24.5581 13.2357)" fill="#8F8F8F"/>
<rect width="1.40436" height="2.46941" transform="matrix(-1 0 0 1 26.7261 16.4214)" fill="#8F8F8F"/>
<rect width="1.40436" height="2.46941" transform="matrix(-1 0 0 1 24.5581 16.4214)" fill="#8F8F8F"/>
<rect width="1.40436" height="2.46941" transform="matrix(-1 0 0 1 24.5581 13.2357)" fill="#8F8F8F"/>
<rect width="1.40436" height="2.46941" transform="matrix(-1 0 0 1 14.6616 13.2357)" fill="#8F8F8F"/>
<rect width="1.40436" height="2.46941" transform="matrix(-1 0 0 1 14.6616 16.4214)" fill="#8F8F8F"/>
<rect width="1.40436" height="2.46941" transform="matrix(-1 0 0 1 12.4939 16.4214)" fill="#8F8F8F"/>
<rect width="1.40436" height="2.46941" transform="matrix(-1 0 0 1 12.4939 13.2357)" fill="#8F8F8F"/>
<rect width="1.40436" height="2.46941" transform="matrix(-1 0 0 1 24.1624 20.9266)" fill="#8F8F8F"/>
<rect width="1.40436" height="2.46941" transform="matrix(-1 0 0 1 14.9255 20.9266)" fill="#8F8F8F"/>
<rect width="1.40436" height="2.46941" transform="matrix(-1 0 0 1 12.3618 20.9266)" fill="#8F8F8F"/>
<rect width="4.82573" height="6.40917" transform="matrix(-1 0 0 1 32.1738 20.691)" fill="#C4C4C4"/>
<rect width="4.82573" height="6.40917" transform="matrix(-1 0 0 1 32.1738 12.9153)" fill="#C4C4C4"/>
<rect width="5.84365" height="3.42137" transform="matrix(-1 0 0 1 27.3574 23.6788)" fill="#C4C4C4"/>
<rect width="5.84365" height="3.42137" transform="matrix(-1 0 0 1 15.9436 23.6788)" fill="#C4C4C4"/>
<rect width="4.82573" height="6.40917" transform="matrix(-1 0 0 1 10.0999 20.691)" fill="#C4C4C4"/>
<rect width="4.99538" height="0.706894" transform="matrix(-0.752084 -0.659068 -0.659068 0.752084 22.5317 18.7902)" fill="#AEAEAE"/>
<rect width="4.99538" height="0.706894" transform="matrix(-0.763458 0.645858 0.645858 0.763458 18.72 15.5543)" fill="#AEAEAE"/>
<rect width="26.8997" height="2.10183" transform="matrix(-1 0 0 1 32.1738 27.1003)" fill="#8B8B8B"/>
<path d="M18.7287 16.4214L15.4351 19.2136H22.0222L18.7287 16.4214Z" fill="#C4C4C4"/>
<rect width="0.55609" height="6.40917" transform="matrix(-1 0 0 1 21.5139 20.691)" fill="#7D7D7D"/>
<rect width="0.55609" height="6.40917" transform="matrix(-1 0 0 1 21.5139 20.691)" fill="#7D7D7D"/>
<path d="M17.9275 20.691H17.3714V27.1002H17.9275V20.691Z" fill="#7D7D7D"/>
<rect width="0.55609" height="6.40917" transform="matrix(-1 0 0 1 20.0435 20.691)" fill="#7D7D7D"/>
<rect width="0.55609" height="6.40917" transform="matrix(-1 0 0 1 16.4619 20.691)" fill="#7D7D7D"/>
<rect width="1.29126" height="0.480688" transform="matrix(-1 0 0 1 20.4111 20.691)" fill="#7D7D7D"/>
<rect width="1.29126" height="0.480688" transform="matrix(-1 0 0 1 16.8296 20.691)" fill="#7D7D7D"/>
<rect width="1.29126" height="0.480688" transform="matrix(-1 0 0 1 21.8813 20.691)" fill="#7D7D7D"/>
<rect width="1.29126" height="0.480688" transform="matrix(-1 0 0 1 18.2998 20.691)" fill="#7D7D7D"/>
<rect width="5.44779" height="1.36666" transform="matrix(-1 0 0 1 32.4849 19.3245)" fill="#D1D1D1"/>
<rect width="5.44779" height="1.36666" transform="matrix(-1 0 0 1 15.51 19.381)" fill="#C4C4C4"/>
<rect width="6.38089" height="1.54574" transform="matrix(-1 0 0 1 21.9192 19.1454)" fill="#838383"/>
<path d="M20.3074 18.9899C20.3074 18.118 19.6006 17.4111 18.7286 17.4111V17.4111C17.8567 17.4111 17.1499 18.118 17.1499 18.9899V19.1454H20.3074V18.9899Z" fill="#9A9A9A"/>
<path d="M30.3831 24.8477C30.3831 24.5041 30.1045 24.2256 29.761 24.2256V24.2256C29.4174 24.2256 29.1389 24.5041 29.1389 24.8477V26.5536H30.3831V24.8477Z" fill="#9A9A9A"/>
<path d="M30.3831 21.6243C30.3831 21.2807 30.1045 21.0022 29.761 21.0022V21.0022C29.4174 21.0022 29.1389 21.2807 29.1389 21.6243V23.3302H30.3831V21.6243Z" fill="#9A9A9A"/>
<path d="M30.3831 13.8578C30.3831 13.5142 30.1045 13.2357 29.761 13.2357V13.2357C29.4174 13.2357 29.1389 13.5142 29.1389 13.8578V15.5638H30.3831V13.8578Z" fill="#9A9A9A"/>
<path d="M30.3831 17.0435C30.3831 16.6999 30.1045 16.4214 29.761 16.4214V16.4214C29.4174 16.4214 29.1389 16.6999 29.1389 17.0435V18.7494H30.3831V17.0435Z" fill="#9A9A9A"/>
<path d="M8.26196 21.6243C8.26196 21.2807 7.98345 21.0022 7.6399 21.0022V21.0022C7.29634 21.0022 7.01783 21.2807 7.01783 21.6243V23.3302H8.26196V21.6243Z" fill="#9A9A9A"/>
<path d="M24.002 24.8477C24.002 24.5041 23.7234 24.2256 23.3799 24.2256V24.2256C23.0363 24.2256 22.7578 24.5041 22.7578 24.8477V26.5536H24.002V24.8477Z" fill="#9A9A9A"/>
<path d="M27.0276 24.8477C27.0276 24.5041 26.7491 24.2256 26.4055 24.2256V24.2256C26.062 24.2256 25.7835 24.5041 25.7835 24.8477V26.5536H27.0276V24.8477Z" fill="#9A9A9A"/>
<path d="M14.6616 24.8477C14.6616 24.5041 14.3831 24.2256 14.0396 24.2256V24.2256C13.696 24.2256 13.4175 24.5041 13.4175 24.8477V26.5536H14.6616V24.8477Z" fill="#9A9A9A"/>
<path d="M8.28076 24.8477C8.28076 24.5041 8.00225 24.2256 7.6587 24.2256V24.2256C7.31514 24.2256 7.03663 24.5041 7.03663 24.8477V26.5536H8.28076V24.8477Z" fill="#9A9A9A"/>
<path d="M11.3064 24.8477C11.3064 24.5041 11.0279 24.2256 10.6843 24.2256V24.2256C10.3408 24.2256 10.0623 24.5041 10.0623 24.8477V26.5536H11.3064V24.8477Z" fill="#9A9A9A"/>
<rect width="1.39494" height="2.8747" transform="matrix(-1 0 0 1 19.4026 24.2256)" fill="#707070"/>
<rect width="5.44779" height="1.36666" transform="matrix(-1 0 0 1 10.4202 19.3245)" fill="#D1D1D1"/>
<rect width="0.329884" height="1.84735" transform="matrix(-1 0 0 1 27.1973 21.8315)" fill="#7A7A7A"/>
<rect width="0.329884" height="1.84735" transform="matrix(-1 0 0 1 23.4553 21.8315)" fill="#7A7A7A"/>
<rect width="0.329884" height="1.84735" transform="matrix(-1 0 0 1 25.9436 21.8315)" fill="#7A7A7A"/>
<rect width="0.329884" height="1.84735" transform="matrix(-1 0 0 1 24.6997 21.8315)" fill="#7A7A7A"/>
<rect width="0.329884" height="1.84735" transform="matrix(-1 0 0 1 22.2114 21.8315)" fill="#7A7A7A"/>
<rect width="0.329884" height="1.84735" transform="matrix(-1 0 0 1 15.5383 21.8315)" fill="#7A7A7A"/>
<rect width="0.329884" height="1.84735" transform="matrix(-1 0 0 1 11.7964 21.8315)" fill="#7A7A7A"/>
<rect width="0.329884" height="1.84735" transform="matrix(-1 0 0 1 14.2847 21.8315)" fill="#7A7A7A"/>
<rect width="0.329884" height="1.84735" transform="matrix(-1 0 0 1 13.0405 21.8315)" fill="#7A7A7A"/>
<rect width="0.329884" height="1.84735" transform="matrix(-1 0 0 1 10.5522 21.8315)" fill="#7A7A7A"/>
<rect width="5.83423" height="0.263907" transform="matrix(-1 0 0 1 27.4707 22.2933)" fill="#7A7A7A"/>
<rect width="5.83423" height="0.263907" transform="matrix(-1 0 0 1 15.9341 22.1615)" fill="#7A7A7A"/>
<rect width="6.22066" height="1.29126" transform="matrix(-1 0 0 1 32.8713 11.624)" fill="#7C7C7C"/>
<path d="M29.7609 9.68237L27.5325 11.697H31.9893L29.7609 9.68237Z" fill="#7C7C7C"/>
<rect width="4.82573" height="6.40917" transform="matrix(-1 0 0 1 10.1091 12.9153)" fill="#C4C4C4"/>
<rect width="8.09629" height="1.29126" transform="matrix(-1 0 0 1 22.7109 10.4458)" fill="#7C7C7C"/>
<path d="M7.69644 9.68237L5.46807 11.697H9.9248L7.69644 9.68237Z" fill="#7C7C7C"/>
<path d="M18.6581 7.26953L15.1074 10.5354H22.2088L18.6581 7.26953Z" fill="#7C7C7C"/>
<rect width="27.7102" height="0.546664" transform="matrix(-1 0 0 1 32.5791 27.1003)" fill="#B6B6B6"/>
<path d="M8.3186 13.8578C8.3186 13.5142 8.04009 13.2357 7.69654 13.2357V13.2357C7.35298 13.2357 7.07447 13.5142 7.07447 13.8578V15.5638H8.3186V13.8578Z" fill="#9A9A9A"/>
<path d="M8.3186 17.0435C8.3186 16.6999 8.04009 16.4214 7.69654 16.4214V16.4214C7.35298 16.4214 7.07447 16.6999 7.07447 17.0435V18.7494H8.3186V17.0435Z" fill="#9A9A9A"/>
<rect width="5.44779" height="1.36666" transform="matrix(-1 0 0 1 15.5383 11.7372)" fill="#D3D3D3"/>
<rect width="6.22066" height="1.29126" transform="matrix(-1 0 0 1 10.8069 11.624)" fill="#7C7C7C"/>
</svg>
